<?xml version="1.0" standalone="no"?>
<!DOCTYPE svg PUBLIC "-//W3C//DTD SVG 20010904//EN"
 "http://www.w3.org/TR/2001/REC-SVG-20010904/DTD/svg10.dtd">
<svg version="1.0" xmlns="http://www.w3.org/2000/svg"
 width="500.000000pt" height="500.000000pt" viewBox="0 0 500.000000 500.000000"
 preserveAspectRatio="xMidYMid meet">

<g transform="translate(0.000000,500.000000) scale(0.100000,-0.100000)"
fill="#000000" stroke="none">
<path d="M60 4085 c0 -39 4 -47 24 -54 24 -10 26 -14 101 -263 l26 -88 89 0
89 0 54 168 c42 130 59 169 76 177 17 8 21 19 21 57 l0 48 -95 0 -95 0 0 -46
c0 -28 6 -51 14 -58 12 -9 9 -26 -14 -106 l-27 -95 -30 95 c-25 79 -28 97 -17
106 8 7 14 31 14 58 l0 46 -115 0 -115 0 0 -45z"/>
<path d="M570 4085 c0 -39 3 -47 25 -55 25 -9 25 -11 25 -125 0 -114 0 -115
-25 -121 -22 -6 -25 -11 -25 -55 l0 -49 120 0 120 0 0 49 c0 44 -3 49 -25 55
-21 5 -25 12 -25 41 0 59 26 41 82 -55 l53 -90 62 0 63 0 0 55 c0 46 -3 55
-17 55 -17 0 -63 58 -63 79 0 5 14 19 30 31 28 20 30 25 30 90 0 68 0 69 -42
104 l-42 36 -173 0 -173 0 0 -45z m295 -100 c0 -29 -2 -30 -52 -33 l-53 -3 0
36 0 36 53 -3 c50 -3 52 -4 52 -33z"/>
<path d="M1092 4092 l-42 -37 0 -147 0 -146 48 -41 47 -41 94 0 93 0 49 41 49
41 0 148 0 148 -44 36 -44 36 -104 0 -103 -1 -43 -37z m206 -176 c3 -111 -3
-126 -53 -126 -64 0 -65 2 -65 114 0 57 3 106 7 110 4 4 30 6 58 4 l50 -3 3
-99z"/>
<path d="M1522 4092 l-42 -37 0 -147 0 -146 48 -41 47 -41 94 0 93 0 49 41 49
41 0 148 0 148 -44 36 -44 36 -104 0 -103 -1 -43 -37z m206 -176 c3 -111 -3
-126 -53 -126 -64 0 -65 2 -65 114 0 57 3 106 7 110 4 4 30 6 58 4 l50 -3 3
-99z"/>
<path d="M1910 4081 c0 -44 3 -50 23 -53 21 -3 22 -7 25 -119 l3 -117 -26 -6
c-23 -6 -25 -11 -25 -56 l0 -50 120 0 120 0 0 49 c0 47 -2 50 -31 56 -38 8
-41 16 -37 96 l3 64 40 -67 c33 -57 44 -68 66 -68 22 0 33 9 55 48 55 95 54
95 54 10 l0 -76 -30 -7 c-28 -6 -30 -9 -30 -56 l0 -49 115 0 115 0 0 49 c0 41
-4 51 -20 56 -18 6 -20 15 -20 122 0 106 1 115 20 120 17 4 20 14 20 54 l0 49
-99 0 -98 0 -32 -60 c-18 -32 -35 -61 -39 -64 -4 -2 -23 24 -42 60 l-35 64
-107 0 -108 0 0 -49z"/>
<path d="M2510 4082 c0 -39 4 -49 22 -57 17 -8 31 -44 71 -178 l50 -168 91 3
90 3 54 168 c46 144 57 169 78 177 20 8 24 16 24 55 l0 45 -100 0 -100 0 0
-50 c0 -38 4 -50 15 -50 19 0 20 2 -12 -110 l-27 -95 -28 85 c-32 99 -33 116
-13 124 10 4 15 20 15 51 l0 45 -115 0 -115 0 0 -48z"/>
<path d="M3020 4081 c0 -44 3 -50 23 -53 21 -3 22 -7 25 -119 l3 -117 -26 -6
c-23 -6 -25 -11 -25 -56 l0 -50 115 0 115 0 0 50 c0 45 -3 50 -25 56 -21 5
-25 12 -25 40 0 62 30 43 88 -56 l52 -90 60 0 60 0 0 54 c0 43 -3 55 -18 58
-10 3 -28 21 -39 41 l-21 35 29 28 c27 26 29 33 29 99 0 71 0 72 -39 103 l-40
32 -170 0 -171 0 0 -49z m285 -96 c0 -29 -2 -30 -52 -33 l-53 -3 0 36 0 36 53
-3 c50 -3 52 -4 52 -33z"/>
<path d="M3533 4092 l-43 -38 0 -145 0 -146 49 -41 50 -42 93 0 c93 0 93 0
140 38 l47 37 1 152 0 152 -44 35 -43 36 -104 0 -104 -1 -42 -37z m202 -187
l0 -110 -43 -3 c-66 -5 -72 5 -72 118 0 53 3 100 7 104 4 4 30 6 58 4 l50 -3
0 -110z"/>
<path d="M3963 4092 l-43 -38 0 -145 0 -146 49 -41 50 -42 93 0 c93 0 93 0
140 38 l47 37 1 152 0 152 -44 35 -43 36 -104 0 -104 -1 -42 -37z m202 -187
l0 -110 -43 -3 c-66 -5 -72 5 -72 118 0 53 3 100 7 104 4 4 30 6 58 4 l50 -3
0 -110z"/>
<path d="M4350 4085 c0 -39 3 -47 25 -55 25 -9 25 -11 25 -125 0 -114 0 -115
-25 -121 -22 -6 -25 -11 -25 -55 l0 -49 120 0 120 0 0 49 c0 47 -2 50 -30 56
-30 7 -30 7 -30 76 0 38 2 69 5 69 2 0 19 -27 37 -60 30 -55 36 -60 63 -58 24
3 35 14 67 68 l38 65 0 -77 0 -76 -30 -7 c-28 -6 -30 -9 -30 -56 l0 -49 120 0
120 0 0 49 c0 44 -3 49 -25 55 -25 6 -25 7 -25 121 0 114 0 116 25 125 22 8
25 16 25 55 l0 45 -102 0 -103 0 -35 -64 c-19 -36 -38 -62 -42 -60 -4 3 -21
32 -39 64 l-32 60 -108 0 -109 0 0 -45z"/>
<path d="M2970 3534 c-350 -30 -666 -86 -761 -135 -78 -39 -193 -164 -328
-352 l-63 -88 -22 20 c-12 12 -32 21 -43 21 -21 0 -53 -24 -53 -40 0 -4 -15
-10 -32 -14 -39 -7 -388 -32 -568 -41 -319 -16 -517 -48 -592 -96 -26 -17 -60
-45 -75 -63 -35 -41 -73 -124 -73 -159 0 -15 -11 -49 -24 -76 -30 -58 -53
-146 -66 -246 -8 -63 -14 -79 -36 -99 -35 -30 -27 -69 20 -97 19 -11 37 -31
40 -45 9 -33 67 -97 120 -130 31 -19 51 -44 76 -91 62 -121 164 -211 286 -254
75 -26 228 -36 307 -20 131 28 240 106 291 210 l21 44 145 -6 c238 -8 754 27
913 63 32 7 39 5 44 -8 18 -59 78 -164 117 -204 107 -112 213 -159 375 -166
133 -5 194 6 299 54 120 55 231 179 267 298 4 16 8 16 22 5 23 -20 122 -14
288 16 77 14 180 28 228 32 l88 6 37 -35 c96 -92 273 -124 382 -68 66 34 126
125 154 235 25 94 39 317 27 433 -13 123 -25 154 -97 249 -62 83 -113 125
-176 142 -39 11 -52 25 -133 134 -113 153 -248 311 -306 358 -205 168 -359
209 -804 214 -137 2 -270 1 -295 -1z m545 -35 c174 -15 246 -33 360 -88 161
-79 264 -178 466 -450 l86 -116 -86 -6 c-55 -4 -93 -3 -106 4 -18 10 -16 12
19 18 96 16 86 87 -33 224 -69 79 -88 87 -83 35 3 -33 34 -180 48 -227 5 -17
2 -23 -9 -23 -16 0 -45 110 -67 255 -6 39 -17 79 -25 91 -24 38 -174 127 -268
160 -85 30 -98 1 -104 -238 l-5 -176 28 -27 c34 -31 34 -31 72 -72 49 -53 110
-56 159 -7 25 25 27 25 92 14 177 -29 235 -67 266 -170 7 -24 7 -24 -12 -7
-26 22 -49 22 -70 -3 -10 -11 -23 -20 -30 -20 -21 0 -15 -14 18 -43 37 -32 64
-34 81 -7 7 11 17 20 22 20 16 0 -9 -268 -27 -286 -2 -3 -126 -8 -274 -11
l-269 -6 -12 224 c-13 242 -26 310 -66 348 -22 20 -24 27 -13 45 7 13 13 91
15 217 6 310 7 309 -393 310 -265 0 -368 -7 -690 -47 -331 -41 -362 -52 -471
-166 -77 -80 -224 -270 -224 -289 0 -9 28 -10 113 -5 594 34 1146 40 1362 12
72 -8 152 -16 178 -16 45 0 49 2 63 35 18 44 20 374 2 408 -10 20 -10 21 5 9
32 -27 40 -79 35 -256 -4 -176 -12 -209 -47 -221 -10 -3 -74 1 -142 10 -282
34 -615 43 -949 25 -398 -21 -662 -32 -667 -26 -10 10 99 163 188 265 132 152
177 174 439 226 326 63 690 82 1025 54z m-607 -109 c47 0 74 -35 54 -68 -6 -9
-12 -6 -20 13 -11 25 -28 29 -114 28 -26 0 -22 15 5 19 15 2 21 9 20 23 -1 19
-1 19 11 3 8 -11 26 -18 44 -18z m958 -55 c70 -31 191 -111 204 -134 5 -10 16
-60 24 -112 9 -52 22 -120 30 -151 7 -32 11 -58 8 -58 -3 0 -34 5 -69 11 -61
11 -63 12 -63 41 0 70 -53 114 -130 106 -38 -3 -40 -2 -45 27 -2 16 -13 87
-25 156 -11 70 -20 130 -20 133 0 12 31 5 86 -19z m-75 -215 c11 -87 11 -99
-6 -138 -21 -48 -29 -51 -46 -20 -12 22 -5 304 9 358 7 29 23 -43 43 -200z
m-1297 109 c126 -41 123 -39 95 -87 -22 -39 -28 -42 -79 -47 -97 -11 -243 -37
-315 -56 -38 -10 -71 -16 -73 -14 -4 4 49 95 119 208 l24 38 69 -6 c38 -3 110
-19 160 -36z m-315 -37 c-13 -22 -44 -73 -69 -115 -45 -75 -45 -75 -92 -79
l-47 -3 32 35 c54 59 191 200 195 200 2 0 -7 -17 -19 -38z m1439 -72 c-3 -44
-7 -82 -9 -84 -2 -2 -29 3 -59 11 -70 21 -348 24 -398 6 -31 -12 -37 -10 -77
20 -24 17 -44 35 -45 39 0 9 84 34 180 53 104 21 209 32 319 34 l94 1 -5 -80z
m-907 0 l24 -19 -43 -1 c-40 0 -42 1 -32 20 13 25 22 25 51 0z m1507 -62 c52
-66 82 -118 82 -141 0 -15 -41 -37 -70 -37 -14 0 -22 11 -30 41 -10 36 -40
183 -40 195 0 11 12 -1 58 -58z m-1688 -18 c-9 -17 -21 -20 -74 -20 -35 0 -99
-2 -142 -5 l-79 -5 65 16 c76 17 161 31 208 33 30 1 32 -1 22 -19z m270 5 c11
-13 2 -15 -71 -15 -46 0 -95 -3 -108 -7 -21 -5 -22 -4 -12 16 11 19 20 21 95
21 62 0 87 -4 96 -15z m500 -15 c0 -6 -23 -9 -52 -8 l-53 1 45 7 c25 4 48 8
53 8 4 1 7 -2 7 -8z m210 -12 c68 -13 98 -27 55 -27 -78 1 -229 25 -233 38 -4
11 8 12 59 7 35 -4 89 -12 119 -18z m378 -36 c5 -33 -15 -52 -54 -52 -28 0
-34 4 -34 22 0 53 81 81 88 30z m-571 -30 c46 -6 55 -12 83 -50 52 -72 123
-79 136 -13 6 27 10 29 56 33 46 3 53 0 79 -29 15 -18 33 -49 39 -70 6 -21 13
-138 17 -260 l6 -223 -51 0 -52 0 -1 -42 c-1 -24 -3 -32 -5 -18 -9 54 -37 151
-46 156 -6 4 -8 -1 -5 -12 12 -40 26 -144 34 -244 l7 -105 9 68 9 67 49 0 49
0 0 -54 c0 -66 12 -101 39 -116 25 -13 299 11 401 35 87 21 105 35 128 97 l20
53 51 3 c49 3 51 4 51 31 0 16 3 43 6 60 l7 31 -48 0 -48 0 7 38 c4 20 9 85
13 143 7 125 -6 190 -48 249 l-29 40 79 0 c110 0 202 -33 254 -91 l37 -42 -37
-17 c-25 -11 -46 -31 -61 -58 -25 -46 -72 -217 -72 -265 0 -43 -8 -29 -20 33
-15 80 -26 80 -22 0 3 -41 -3 -111 -13 -168 -15 -83 -22 -101 -49 -128 -37
-37 -22 -35 -381 -69 -452 -44 -388 -56 105 -19 263 20 299 35 338 139 11 28
11 27 6 -15 -12 -100 -35 -142 -89 -164 -44 -18 -210 -54 -285 -61 -36 -3
-130 -18 -210 -32 -167 -29 -254 -33 -272 -15 -9 9 -12 43 -10 120 3 118 -29
428 -54 526 -29 112 -83 189 -158 225 -57 28 -145 28 -203 0 -86 -42 -174
-172 -239 -354 l-32 -90 -43 -7 c-24 -3 -83 -7 -132 -7 l-88 -1 16 30 c20 39
19 56 -5 80 -19 19 -33 20 -385 20 l-364 0 -55 -77 c-31 -43 -56 -84 -56 -90
0 -16 124 -17 480 -3 430 16 620 19 620 11 0 -15 -317 -41 -750 -62 -292 -14
-1363 -18 -1641 -5 -178 7 -196 10 -192 25 4 15 18 17 123 13 l118 -4 20 38
c11 22 36 59 55 84 20 24 33 48 30 53 -4 6 -69 8 -165 4 -122 -4 -159 -3 -155
6 2 7 12 36 21 65 10 28 21 52 24 52 4 0 15 -14 24 -30 20 -35 53 -50 108 -50
56 0 85 14 145 71 74 70 98 124 93 210 -3 53 -9 73 -30 102 l-27 35 77 10
c111 16 174 21 382 32 102 5 221 12 265 15 l80 5 -120 -36 c-139 -41 -303
-113 -417 -181 -89 -53 -238 -188 -238 -215 0 -10 11 -25 25 -34 21 -14 56
-17 213 -17 209 -1 706 18 852 33 110 11 175 39 334 145 54 36 99 65 100 63 2
-2 8 -28 15 -59 48 -224 342 -206 435 27 38 93 36 177 -3 231 -17 23 -47 49
-70 59 -22 10 -39 20 -36 22 2 3 28 11 57 18 41 11 116 13 343 8 160 -3 313
-8 342 -12z m-777 -2 c-8 -5 -29 -10 -45 -10 -33 0 -94 -29 -140 -67 -38 -32
-92 -110 -100 -146 -5 -21 -34 -45 -128 -109 -181 -121 -221 -137 -364 -148
-309 -24 -916 -39 -992 -24 -45 9 -39 30 24 91 229 222 715 392 1129 394 83 0
239 6 346 13 262 17 288 18 270 6z m958 -20 c26 0 30 -30 7 -54 -21 -21 -52
-8 -84 34 l-26 33 40 -6 c22 -4 50 -7 63 -7z m-913 -24 c19 -8 35 -16 35 -18
0 -2 -30 -3 -67 -3 -38 0 -79 -4 -93 -9 -23 -8 -24 -8 -10 9 30 36 80 44 135
21z m-15 -52 c41 -25 60 -65 60 -126 0 -133 -134 -268 -228 -229 -69 29 -110
107 -93 179 17 77 82 162 141 185 30 11 93 7 120 -9z m-1901 -50 c26 -18 51
-71 51 -106 0 -18 -5 -13 -19 18 -20 45 -63 84 -92 84 -11 0 -19 5 -19 10 0
16 53 12 79 -6z m-32 -39 c47 -33 39 -129 -18 -211 -56 -82 -137 -107 -186
-58 -37 37 -30 109 18 182 55 85 135 123 186 87z m2678 -56 c55 -14 113 -63
143 -120 13 -24 15 -33 5 -19 -90 130 -201 161 -310 87 -73 -49 -121 -131
-177 -297 -105 -312 -171 -385 -412 -455 -115 -33 -283 -60 -510 -80 -147 -14
-273 -16 -690 -12 -459 3 -521 6 -634 25 -186 31 -280 68 -357 138 -24 22 -49
55 -57 74 l-14 35 756 1 c437 0 859 5 997 12 235 12 680 46 780 60 l50 7 46
136 c25 74 63 169 85 210 48 93 134 182 189 196 54 15 59 15 110 2z m1379 -88
c40 -42 57 -110 61 -251 l4 -125 -13 131 c-8 91 -18 142 -32 169 -22 43 -77
78 -111 72 -27 -5 -30 8 -5 22 31 19 67 12 96 -18z m-2354 -104 c18 -16 46
-31 62 -34 33 -6 48 -23 21 -23 -57 1 -131 60 -147 120 -7 22 -5 22 12 -5 10
-17 34 -43 52 -58z m998 -14 c159 -91 224 -390 142 -656 -24 -79 -84 -173
-134 -211 -73 -55 -188 -81 -251 -57 -13 5 2 10 48 14 166 15 277 114 322 284
21 78 21 268 1 355 -30 130 -96 232 -186 288 -49 30 0 16 58 -17z m-62 -45
c184 -123 239 -501 102 -703 -76 -113 -168 -143 -267 -90 -28 16 -59 37 -68
48 -15 16 -9 15 36 -8 90 -45 185 -31 248 37 59 64 109 231 98 328 -21 182
-93 327 -194 392 -33 21 -40 28 -24 28 11 0 43 -15 69 -32z m-799 16 c-3 -3
-12 -4 -19 -1 -8 3 -5 6 6 6 11 1 17 -2 13 -5z m2165 -31 c40 -49 61 -173 50
-293 -7 -73 -7 -72 -12 60 -6 141 -16 176 -63 228 -16 17 -17 22 -5 22 8 0 21
-8 30 -17z m-2432 -81 c0 -5 -11 -19 -25 -32 -13 -12 -29 -38 -35 -56 l-12
-34 -89 0 c-70 0 -88 3 -83 13 4 6 25 36 46 65 l39 52 79 0 c44 0 80 -4 80 -8z
m414 -8 c21 -21 21 -24 -12 -63 l-28 -34 -197 -5 c-108 -3 -197 -1 -197 3 0 5
19 32 41 62 l41 53 169 0 c139 0 170 -3 183 -16z m-2074 -3 c0 -18 -82 -131
-95 -131 -30 0 -46 12 -34 26 6 7 9 34 7 58 -3 45 -3 45 32 49 69 7 90 7 90
-2z m-146 -17 c23 -59 -7 -105 -68 -102 -37 1 -38 2 -8 5 63 8 82 86 24 99
-48 10 -48 12 -1 13 34 1 49 -3 53 -15z m-39 -24 c8 -13 -13 -50 -29 -50 -20
0 -37 25 -30 44 7 17 49 22 59 6z m3915 -109 c-12 -42 -28 -69 -48 -80 -58
-31 -431 -73 -457 -51 -10 9 -15 32 -15 76 0 35 1 65 3 66 1 1 119 4 262 8
143 3 261 7 262 8 1 1 -2 -11 -7 -27z m379 -209 c-5 -2 -9 -10 -9 -18 0 -23
-39 -94 -51 -94 -13 0 -9 14 25 95 14 33 26 71 27 85 1 14 5 6 9 -20 4 -25 3
-46 -1 -48z m18 46 c-3 -7 -5 -2 -5 12 0 14 2 19 5 13 2 -7 2 -19 0 -25z"/>
<path d="M3386 2754 c21 -14 51 -40 66 -57 15 -18 28 -26 28 -20 0 23 -85 103
-110 103 -20 0 -18 -3 16 -26z"/>
<path d="M1336 2578 c-18 -29 -30 -68 -20 -68 16 0 73 42 88 65 16 25 16 25
-19 25 -25 0 -38 -6 -49 -22z"/>
<path d="M370 2048 c0 -25 63 -80 126 -109 169 -77 317 -94 854 -94 391 0 428
1 453 18 36 24 35 63 -3 116 l-30 41 -543 -2 -542 -3 1 -30 c0 -16 4 -42 8
-56 l8 -27 -44 10 c-36 9 -49 19 -77 60 -41 59 -71 76 -151 85 -49 5 -60 3
-60 -9z m97 -18 c39 -9 53 -18 76 -50 16 -22 24 -40 18 -40 -24 0 -118 49
-140 74 -27 29 -23 31 46 16z m1332 -126 c3 -2 -1 -10 -8 -17 -9 -9 -121 -12
-479 -11 -441 1 -521 5 -529 30 -3 9 1007 7 1016 -2z"/>
<path d="M2015 2040 c-71 -3 -129 -9 -128 -13 0 -5 18 -31 40 -57 36 -47 40
-49 89 -50 121 -1 204 35 204 86 0 25 -28 45 -57 42 -10 -1 -76 -5 -148 -8z
m180 -31 c14 -21 -27 -47 -89 -58 -102 -18 -118 -15 -149 24 l-27 34 62 4
c140 8 197 7 203 -4z"/>
<path d="M2285 2333 c-26 -6 -65 -42 -65 -60 0 -16 110 -17 263 -4 101 10 127
20 127 52 0 18 -10 19 -152 18 -84 -1 -162 -3 -173 -6z m295 -18 c0 -11 -12
-15 -44 -15 -24 0 -51 -3 -60 -6 -10 -4 -16 -1 -16 9 0 15 17 19 98 25 14 1
22 -4 22 -13z m-200 -9 c-8 -7 -42 -16 -75 -19 l-60 -6 24 20 c29 24 136 29
111 5z"/>
<path d="M1010 1375 c0 -39 3 -47 25 -55 25 -9 25 -11 25 -125 0 -114 0 -115
-25 -121 -22 -6 -25 -11 -25 -55 l0 -49 120 0 120 0 0 49 c0 44 -3 49 -25 55
-21 5 -25 12 -25 41 0 59 26 41 82 -55 l53 -90 62 0 63 0 0 55 c0 46 -3 55
-17 55 -17 0 -63 58 -63 79 0 5 14 19 30 31 28 20 30 25 30 90 0 68 0 69 -42
104 l-42 36 -173 0 -173 0 0 -45z m295 -100 c0 -29 -2 -30 -52 -33 l-53 -3 0
36 0 36 53 -3 c50 -3 52 -4 52 -33z"/>
<path d="M1490 1371 c0 -44 3 -50 23 -53 21 -3 22 -7 25 -119 l3 -117 -26 -6
c-23 -6 -25 -11 -25 -56 l0 -50 200 0 200 0 0 80 0 80 -49 0 c-44 0 -49 -3
-55 -25 -6 -23 -11 -25 -61 -25 l-55 0 0 40 0 40 55 0 55 0 0 40 0 40 -55 0
-55 0 0 35 0 35 56 0 c47 0 57 -3 61 -20 4 -17 14 -20 54 -20 l49 0 0 75 0 75
-200 0 -200 0 0 -49z"/>
<path d="M1940 1371 c0 -44 3 -50 23 -53 21 -3 22 -7 25 -119 l3 -117 -26 -6
c-23 -6 -25 -11 -25 -56 l0 -50 105 0 105 0 0 49 c0 44 -3 49 -25 55 -24 6
-25 10 -25 73 0 36 3 63 7 59 4 -4 37 -57 73 -119 l67 -112 66 -3 67 -3 2 173
c3 171 3 173 26 176 19 3 22 9 22 53 l0 49 -105 0 -105 0 0 -50 c0 -44 3 -50
20 -50 27 0 32 -15 28 -81 l-3 -54 -65 117 -65 118 -97 0 -98 0 0 -49z"/>
<path d="M2440 1330 l0 -90 50 0 50 0 6 40 c6 34 10 40 30 40 24 0 24 0 24
-120 0 -119 0 -120 -25 -126 -22 -6 -25 -11 -25 -55 l0 -49 120 0 120 0 0 50
c0 45 -3 50 -25 56 -25 6 -25 7 -25 125 0 119 0 119 24 119 20 0 24 -6 30 -40
l6 -40 50 0 50 0 0 90 0 90 -230 0 -230 0 0 -90z"/>
<path d="M2980 1370 c0 -43 3 -50 20 -50 26 0 26 -2 -11 -130 -27 -93 -35
-109 -55 -114 -21 -6 -24 -12 -24 -56 l0 -50 95 0 95 0 0 50 c0 34 -5 52 -15
58 -10 5 -13 15 -9 25 9 24 99 24 108 0 4 -10 1 -20 -9 -25 -10 -6 -15 -24
-15 -58 l0 -50 115 0 115 0 0 49 c0 47 -2 50 -30 56 -33 7 -29 -4 -81 208
l-33 137 -133 0 -133 0 0 -50z m166 -131 l12 -39 -30 0 c-23 0 -28 4 -24 18 3
9 8 30 12 45 8 34 15 28 30 -24z"/>
<path d="M3420 1371 c0 -44 3 -50 23 -53 21 -3 22 -7 25 -119 l3 -117 -26 -6
c-23 -6 -25 -11 -25 -56 l0 -50 200 0 200 0 0 85 0 85 -49 0 c-46 0 -49 -2
-54 -30 -6 -29 -8 -30 -62 -30 l-56 0 3 117 c3 116 3 117 28 123 22 5 25 12
28 53 l3 47 -120 0 -121 0 0 -49z"/>
<path d="M3888 1386 c-37 -32 -38 -35 -38 -99 0 -64 1 -67 36 -94 26 -20 60
-32 118 -43 76 -14 81 -17 81 -40 0 -23 -4 -25 -52 -28 -49 -3 -53 -1 -59 22
-6 24 -10 26 -65 26 l-59 0 0 -44 c0 -39 4 -47 44 -80 44 -36 44 -36 143 -36
l98 0 48 41 c47 40 47 41 47 103 0 62 0 63 -42 93 -31 21 -64 33 -118 42 -81
13 -96 21 -87 45 5 12 20 16 56 16 40 0 50 -3 54 -20 4 -17 14 -20 66 -20 l61
0 -1 43 c0 37 -5 46 -41 75 -40 32 -41 32 -147 32 -106 -1 -106 -1 -143 -34z"/>
</g>
</svg>
